<?xml version="1.0" encoding="UTF-8" standalone="no"?>
<svg width="778px" height="36px" viewBox="0 0 778 36" version="1.1" xmlns="http://www.w3.org/2000/svg" xmlns:xlink="http://www.w3.org/1999/xlink" xmlns:sketch="http://www.bohemiancoding.com/sketch/ns">
    <title>divider</title>
    <description>Created with Sketch (http://www.bohemiancoding.com/sketch)</description>
    <defs></defs>
    <g id="Page 1" stroke="none" stroke-width="1" fill="none" fill-rule="evenodd">
        <g id="Home" transform="translate(-366.000000, -1956.000000)">
            <g id="divider" transform="translate(366.000000, 1902.000000)">
                <path d="M0,72 L0,73 L778,73 L778,72 L0,72 Z M0,72" id="Rectangle 1 copy" fill="#E6E6E6"></path>
                <path d="M392,148 C432.869074,148 466,114.869074 466,74 C466,33.1309265 432.869074,0 392,0 C351.130926,0 318,33.1309265 318,74 C318,114.869074 351.130926,148 392,148 Z M392,148" id="Oval 2" fill="#FFFFFF"></path>
                <path d="M412.113616,79.0816502 C412.77185,78.9187028 413.291379,78.7477769 413.671896,78.569793 C414.052413,78.3911954 414.345473,78.1892757 414.550461,77.9624996 C414.756063,77.7360305 414.886176,77.4730439 414.940491,77.1744606 C414.995114,76.8752635 415.022732,76.5174545 415.022732,76.1007266 C415.022732,75.9135367 415.01905,75.6839988 415.013219,75.4124199 C415.006775,75.1402273 415.003706,74.9048589 415.003706,74.7053942 C415.003706,73.9207307 415.177394,73.3324632 415.524463,72.939978 C415.872145,72.5481065 416.341348,72.2571949 416.933604,72.0687775 C416.317412,71.8690059 415.842072,71.5768668 415.506664,71.1923602 C415.171564,70.8081604 415.003706,70.2254166 415.003706,69.4441286 C415.003706,69.2458914 415.006775,69.0132848 415.013219,68.7460021 C415.019357,68.4787194 415.022732,68.2522502 415.022732,68.0659808 C415.022732,67.6455706 414.995114,67.2883753 414.940491,66.9940881 C414.885869,66.6998009 414.755756,66.4383487 414.550461,66.2100383 C414.345473,65.9820348 414.050572,65.7819563 413.6676,65.6110304 C413.2834,65.4397976 412.765712,65.2673374 412.113616,65.0930359 L412.349291,64.1509487 C413.176916,64.3013144 413.856017,64.4891181 414.386593,64.7143598 C414.917476,64.9396015 415.336659,65.2059636 415.644755,65.5125255 C415.952238,65.8190875 416.160909,66.1707591 416.271075,66.5672336 C416.380627,66.964015 416.435863,67.3997687 416.435863,67.8744947 L416.435863,68.1724643 C416.435863,68.2927569 416.432181,68.4247104 416.426964,68.5692457 C416.42052,68.713474 416.417451,68.8484963 416.417451,68.9746193 L416.417451,69.2811813 C416.417451,70.0084603 416.571499,70.5599036 416.879595,70.935511 C417.187692,71.3114253 417.755399,71.4989221 418.583024,71.4989221 L419.062967,71.4989221 L419.062967,72.6496801 L418.583024,72.6496801 C417.755399,72.6496801 417.187692,72.8384044 416.879595,73.2161599 C416.571499,73.5939154 416.417451,74.144438 416.417451,74.869569 L416.417451,75.1868713 C416.417451,75.325576 416.42052,75.4630533 416.426964,75.5989961 C416.432488,75.7346321 416.435863,75.8632102 416.435863,75.9841165 L416.435863,76.2833136 C416.435863,76.7663251 416.380627,77.2057612 416.271075,77.6013151 C416.160909,77.9968689 415.952238,78.3488475 415.644755,78.6566369 C415.336659,78.9647331 414.917783,79.2335502 414.386593,79.4630881 C413.856017,79.6926259 413.177223,79.8828846 412.349291,80.033864 L412.113616,79.0816502 L412.113616,79.0816502 Z M412.113616,79.0816502" id="Shape" fill="#BCBCBC"></path>
                <path d="M359.739621,72.6490664 L359.739621,71.4986152 L360.219563,71.4986152 C361.046882,71.4986152 361.619499,71.3108115 361.936494,70.9352041 C362.25349,70.5592898 362.412141,70.0081535 362.412141,69.2805675 L362.412141,68.9740056 C362.412141,68.8417451 362.409072,68.7067229 362.403242,68.5686319 C362.397104,68.4302341 362.394343,68.2979736 362.394343,68.1718506 L362.394343,67.8738809 C362.394343,67.3933244 362.448658,66.9563432 362.556983,66.5626306 C362.665615,66.1689179 362.878581,65.8187806 363.195884,65.5122187 C363.513186,65.2056567 363.932983,64.938374 364.455273,64.7100636 C364.977564,64.4814464 365.658813,64.295177 366.498099,64.1509487 L366.724568,65.0930359 C366.066028,65.2673374 365.54834,65.4401045 365.170891,65.6110304 C364.793443,65.7819563 364.501917,65.9820348 364.296622,66.2100383 C364.09102,66.4383487 363.961215,66.6998009 363.906899,66.9940881 C363.852583,67.2883753 363.825272,67.6455706 363.825272,68.0659808 C363.825272,68.2519433 363.82834,68.4805606 363.834171,68.7506051 C363.840001,69.0206497 363.84307,69.2523356 363.84307,69.4441286 C363.84307,70.2254166 363.669382,70.8124566 363.322314,71.2061693 C362.974938,71.5995751 362.505429,71.887418 361.913479,72.0690843 C362.221575,72.1663617 362.495916,72.2881886 362.738036,72.4339513 C362.979541,72.5800209 363.180234,72.7549361 363.340419,72.958697 C363.500298,73.162151 363.624273,73.4070323 363.712037,73.693034 C363.799495,73.9790357 363.843377,74.3162845 363.843377,74.7057011 C363.843377,74.9048589 363.840001,75.1405341 363.833864,75.4127268 C363.82742,75.6843057 363.824351,75.9138435 363.824351,76.1010335 C363.824351,76.5238987 363.851662,76.8835489 363.906592,77.1790636 C363.961215,77.475192 364.091327,77.7363373 364.296622,77.9631134 C364.501917,78.1895825 364.793136,78.3933434 365.170891,78.574396 C365.54834,78.7560624 366.066335,78.9248402 366.724568,79.081957 L366.498099,80.0332503 C365.658813,79.8822709 364.977257,79.6920122 364.45466,79.4627812 C363.932062,79.2329365 363.512266,78.9641194 363.19527,78.6560231 C362.878275,78.3479269 362.665308,77.9962552 362.556983,77.6007013 C362.448351,77.2054543 362.394343,76.7657113 362.394343,76.2826998 L362.394343,75.9835027 C362.394343,75.8625964 362.397411,75.7343253 362.403242,75.5983824 C362.409072,75.4624395 362.412141,75.3252692 362.412141,75.1862576 L362.412141,74.8692621 C362.412141,74.1502685 362.25349,73.6006665 361.936494,73.2201492 C361.619499,72.8396319 361.047188,72.6493732 360.219563,72.6493732 L359.739621,72.6493732 L359.739621,72.6490664 Z M359.739621,72.6490664" id="Shape" fill="#BCBCBC"></path>
                <path d="M376.179844,67.4573529 C377.662941,67.4573529 379.234723,67.8286642 380.896418,68.5697523 C382.557192,69.3117611 384.159047,70.3050954 385.701983,71.5509827 C386.918104,70.6021444 388.030504,69.4599787 389.039181,68.1250994 C388.089422,66.7899133 387.332991,65.4037869 386.769887,63.9642654 C386.206169,62.5256644 385.924463,61.0944284 385.924463,59.6705571 C385.924463,58.9586215 386.013455,58.2764522 386.191439,57.6237422 C386.369423,56.971646 386.643457,56.3931983 387.014768,55.888706 C387.385465,55.3845206 387.844848,54.9840568 388.394143,54.6870078 C388.942825,54.3908794 389.57344,54.2423549 390.285376,54.2423549 C390.759488,54.2423549 391.242193,54.3534414 391.731341,54.5762282 C392.220797,54.798708 392.658085,55.1252164 393.044126,55.5548328 C393.429246,55.9850628 393.74839,56.5193214 394.000636,57.1566879 C394.252269,57.794975 394.378699,58.5440418 394.378699,59.4038881 C394.378699,60.9762839 394.05219,62.5259713 393.399787,64.0535642 C392.747077,65.581464 391.857158,67.0274297 390.730029,68.3917684 C391.70894,69.5198181 392.805996,70.5278822 394.022731,71.4174948 C395.416529,70.4984228 396.840707,69.7640857 398.294344,69.2147906 C399.747368,68.666416 401.171239,68.3914616 402.565958,68.3914616 C403.277894,68.3914616 403.959756,68.4807604 404.612773,68.6584374 C405.264869,68.8364213 405.836566,69.0966461 406.326022,69.4372704 C406.815477,69.7785085 407.208269,70.2090455 407.505318,70.7276537 C407.801447,71.2465689 407.950278,71.847418 407.950278,72.5295873 C407.950278,73.0635391 407.853614,73.5830679 407.661208,74.0869465 C407.46788,74.5917457 407.171752,75.0514351 406.771288,75.4660149 C406.370824,75.8818221 405.851296,76.2156954 405.213929,76.4676347 C404.575642,76.7198808 403.797116,76.845697 402.878044,76.845697 C401.365181,76.845697 399.822244,76.5050727 398.250462,75.8219827 C396.67776,75.1398134 395.164896,74.2201276 393.711873,73.0635391 C393.118082,73.5683382 392.547306,74.1022899 391.998624,74.6653942 C391.449329,75.2294191 390.937472,75.8222896 390.463666,76.4452332 C391.412812,77.75096 392.169243,79.0928972 392.732961,80.4719656 C393.296065,81.8516478 393.578385,83.2086216 393.578385,84.5435009 C393.578385,85.2554365 393.481721,85.9452776 393.289314,86.6127172 C393.095987,87.2801568 392.82226,87.8730274 392.465985,88.3925563 C392.110017,88.9111645 391.687152,89.3193 391.198003,89.616349 C390.708548,89.9124774 390.181654,90.0610019 389.61855,90.0610019 C389.024759,90.0610019 388.446311,89.9499154 387.883207,89.7271287 C387.319489,89.5046488 386.815303,89.1855052 386.370343,88.7706186 C385.925384,88.3551183 385.569416,87.8285314 385.30244,87.1911649 C385.035464,86.5531847 384.901976,85.8041179 384.901976,84.9442715 C384.901976,83.4605609 385.257944,81.9553694 385.96988,80.4277765 C386.681815,78.9001836 387.645383,77.4244516 388.862118,76.0002735 C387.912359,74.9326769 386.815303,73.9092695 385.569416,72.930358 C384.145545,73.8798101 382.647411,74.6138402 381.075322,75.1327554 C379.50262,75.6519774 377.960604,75.9115884 376.447741,75.9115884 C375.735805,75.9115884 375.053022,75.8299613 374.400926,75.6667071 C373.748216,75.5040666 373.17744,75.2515136 372.687677,74.9099686 C372.198222,74.5696511 371.804816,74.1314425 371.508687,73.5974908 C371.211945,73.0638459 371.063728,72.4264794 371.063728,71.6844707 C371.063728,70.4382765 371.523417,69.4228476 372.443103,68.6363429 C373.361254,67.8510656 374.607142,67.4573529 376.179844,67.4573529 L376.179844,67.4573529 Z M376.44682,75.1106608 C377.870691,75.1106608 379.279219,74.8590284 380.673938,74.3539224 C382.067736,73.8497369 383.402922,73.1681813 384.678576,72.3071075 C383.31393,71.3883423 381.904482,70.6540052 380.451458,70.1047101 C378.997821,69.5560287 377.588372,69.2813811 376.22434,69.2813811 C374.94838,69.2813811 373.969468,69.5483569 373.287606,70.0820018 C372.604823,70.6159535 372.264198,71.2837 372.264198,72.0843207 C372.264198,73.0343865 372.627224,73.7751678 373.354503,74.3091195 C374.080862,74.843685 375.111941,75.1106608 376.44682,75.1106608 L376.44682,75.1106608 Z M389.929101,69.3258771 C388.920423,70.4238536 387.808024,71.4027651 386.591903,72.2626115 C387.719032,73.2412161 388.697943,74.2357779 389.528637,75.2438419 C390.032823,74.7098902 390.552045,74.1983399 391.085996,73.7088841 C391.619948,73.2191215 392.183052,72.7523741 392.776843,72.3071075 C391.767859,71.3883423 390.81902,70.3940874 389.929101,69.3258771 L389.929101,69.3258771 Z M386.814383,59.7595491 C386.814383,60.9762839 387.073687,62.2144995 387.593216,63.4751165 C388.111824,64.7360404 388.831431,65.9598332 389.751424,67.1458811 C390.522278,65.9886789 391.130799,64.7584418 391.575759,63.4527151 C392.020719,62.1476021 392.243199,60.8274525 392.243199,59.4925732 C392.243199,58.068702 392.013047,57.0011054 391.553357,56.2891698 C391.093054,55.5772342 390.477782,55.2212664 389.706928,55.2212664 C388.846161,55.2212664 388.149569,55.6441316 387.615617,56.4895551 C387.081358,57.3343649 386.814383,58.4246698 386.814383,59.7595491 L386.814383,59.7595491 Z M392.732347,84.5435009 C392.732347,83.2976136 392.47243,82.0587842 391.953514,80.8282403 C391.434292,79.5976964 390.744451,78.4033631 389.884298,77.2464677 C389.023531,78.4926619 388.333997,79.7535858 387.815389,81.0283188 C387.296167,82.3036655 387.036556,83.5793191 387.036556,84.8552796 C387.036556,86.2193114 387.340356,87.2427189 387.948877,87.9255019 C388.556477,88.6076713 389.246318,88.9489094 390.017786,88.9489094 C390.788947,88.9489094 391.433986,88.5407739 391.953514,87.7254235 C392.47243,86.9088456 392.732347,85.8486139 392.732347,84.5435009 L392.732347,84.5435009 Z M402.565958,69.192696 C401.320071,69.192696 400.052089,69.4526139 398.761706,69.971529 C397.471322,70.4904442 396.20334,71.1947081 394.957453,72.0849345 C396.292332,73.0049271 397.671708,73.7312856 399.095579,74.2652373 C400.51945,74.799189 401.898825,75.065858 403.233705,75.065858 C404.360834,75.065858 405.250753,74.799189 405.903463,74.2652373 C406.555559,73.7312856 406.882375,73.0049271 406.882375,72.0849345 C406.882375,71.2843138 406.496641,70.6021444 405.725479,70.0381196 C404.953397,69.4750153 403.900837,69.192696 402.565958,69.192696 L402.565958,69.192696 Z M402.565958,69.192696" id="Shape" fill="#D8D8D8"></path>
            </g>
        </g>
    </g>
</svg>