<?xml version="1.0" encoding="UTF-8" standalone="no"?>
<svg width="778px" height="40px" viewBox="0 0 778 40" version="1.1" xmlns="http://www.w3.org/2000/svg" xmlns:xlink="http://www.w3.org/1999/xlink" xmlns:sketch="http://www.bohemiancoding.com/sketch/ns">
    <title>fin</title>
    <description>Created with Sketch (http://www.bohemiancoding.com/sketch)</description>
    <defs>
        <linearGradient x1="-42.099263%" y1="-494.186209%" x2="119.891457%" y2="187.84377%" id="linearGradient-1">
            <stop stop-color="#F95812" offset="0%"></stop>
            <stop stop-color="#FFA501" offset="100%"></stop>
        </linearGradient>
        <linearGradient x1="-111.656116%" y1="-62.5773974%" x2="120.881342%" y2="245.062009%" id="linearGradient-2">
            <stop stop-color="#F95812" offset="0%"></stop>
            <stop stop-color="#FFA501" offset="100%"></stop>
        </linearGradient>
        <linearGradient x1="23.0682373%" y1="-34.9836483%" x2="100%" y2="162.69077%" id="linearGradient-3">
            <stop stop-color="#F95812" offset="0%"></stop>
            <stop stop-color="#FFA501" offset="100%"></stop>
        </linearGradient>
    </defs>
    <g id="Page 1" stroke="none" stroke-width="1" fill="none" fill-rule="evenodd">
        <g id="Home" transform="translate(-366.000000, -2289.000000)">
            <g id="Fin" transform="translate(366.000000, 2243.000000)">
                <path d="M0,63 L0,64 L778,64 L778,63 L0,63 Z M0,63" id="Rectangle 1 copy 2" fill="#E6E6E6"></path>
                <path d="M395,122 C428.689371,122 456,94.6893714 456,61 C456,27.3106286 428.689371,0 395,0 C361.310629,0 334,27.3106286 334,61 C334,94.6893714 361.310629,122 395,122 Z M395,122" id="Oval 2 copy" fill="#FFFFFF"></path>
                <path d="M418.462609,79.2396783 C417.436997,78.413776 416.093965,78 414.431116,78 C413.155956,78 411.576403,78.2936688 409.693828,78.8803465 C407.809197,79.4673541 405.871091,80.108146 403.876083,80.8007424 C401.880389,81.4946587 399.954966,82.1338008 398.099129,82.7204784 C396.240892,83.3074861 394.703844,83.599835 393.485244,83.599835 C392.210427,83.599835 391.184815,83.280099 390.409435,82.639967 C389.634056,82.0004949 389.135304,81.1475356 388.913522,80.080429 C388.802459,79.8141472 388.733217,79.60033 388.706137,79.440297 C388.677686,79.279934 388.553255,79.2000825 388.332159,79.2000825 C388.110034,79.2000825 388,79.4135698 388,79.8402145 C388,81.5474531 388.567652,83.0006187 389.703298,84.2007012 C390.838945,85.4011136 392.293381,86 394.067636,86 C395.397298,86 396.961083,85.7073211 398.763446,85.1206434 C400.563067,84.5336358 402.392167,83.9083522 404.24869,83.2408332 C406.105213,82.5733141 407.892494,81.9480305 409.610874,81.360033 C411.326856,80.7743452 412.768266,80.4796865 413.932364,80.4796865 C416.868659,80.4796865 418.586697,81.3078985 419.085449,82.9606929 C419.306545,83.600165 419.473139,83.9205609 419.584201,83.9205609 C419.860829,83.9205609 419.999999,83.5473706 419.999999,82.80033 C420.000685,81.2544442 419.487536,80.0672304 418.462609,79.2396783 L418.462609,79.2396783 Z M418.462609,79.2396783" id="Shape" fill="url(#linearGradient-1)"></path>
                <path d="M419.117094,67.314391 C419.955471,65.8580123 420.64647,64.1994421 421.188082,62.3390143 C421.72869,60.4779191 421.999998,58.5504277 421.999998,56.5542046 C422.001003,54.5576479 421.581312,52.9664749 420.741931,51.7796848 C419.902214,50.5938956 418.481362,50 416.479038,50 C414.691417,50 417.552429,49.7296143 415.783569,50.2359619 C414.01471,50.7423096 416.718165,49.8386914 415.093328,50.6738153 C413.469832,51.5112748 411.830927,52.2923475 410.17963,53.02037 C408.527328,53.7483926 406.836507,54.1124038 405.104152,54.1124038 C403.857138,54.1124038 402.841908,53.7760854 402.057458,53.1011131 C401.272338,52.4271418 400.798386,51.5780046 400.636605,50.552367 C400.581674,50.2290609 400.541815,49.986498 400.515019,49.8240108 C400.487553,49.6625246 400.364627,49.5814479 400.14959,49.5814479 C399.877277,49.5814479 399.742962,49.7976525 399.742962,50.2290609 C399.742962,51.9553618 400.297637,53.4240856 401.408662,54.6379013 C402.517678,55.851717 403.939535,56.4586249 405.672225,56.4586249 C407.621292,56.4586249 409.407573,56.1626781 411.03241,55.5681152 C412.657246,54.9755543 414.20069,54.3419545 415.662406,53.6669822 C417.124122,52.9933445 409.777384,55.1245179 411.157707,54.5306223 C412.539706,53.9377277 414.013815,53.6404463 415.58439,53.6404463 C416.992849,53.6404463 418.184597,53.9780993 419.158963,54.6520706 C420.133664,55.3263756 420.621014,56.3646919 420.621014,57.7670194 C420.621014,59.3848844 420.41703,60.9220062 420.010738,62.3780512 C419.60545,63.8340963 419.130492,65.1159765 418.589885,66.2210226" id="Shape" fill="url(#linearGradient-2)"></path>
                <path d="M383.511822,60.2892016 C384.17157,60.4628194 384.831307,60.619073 385.491055,60.7579673 C386.150802,60.8968615 386.81054,60.9663075 387.470288,60.9663075 C388.095311,60.9663075 388.642199,60.8881807 389.110967,60.7319247 C389.579735,60.5756687 390.039815,60.3239268 390.491222,59.9766912 C390.977351,59.5947322 391.289859,59.4037555 391.428753,59.4037555 C391.671818,59.4037555 391.793348,59.5079246 391.793348,59.7162659 C391.793348,59.8204365 391.767306,59.9419672 391.715221,60.0808614 C391.663135,60.2197556 391.515562,60.4454553 391.272498,60.7579673 C391.064156,61.0010321 390.812414,61.2961779 390.517264,61.6434134 C390.222114,61.9906489 389.874884,62.3205177 389.475563,62.6330297 C389.076242,62.9455417 388.642204,63.2146452 388.173436,63.4403483 C387.704668,63.6660514 387.192503,63.7789012 386.636926,63.7789012 C386.116073,63.7789012 385.543143,63.6834129 384.918119,63.4924334 C384.293095,63.3014538 383.668081,63.0670733 383.043057,62.7892849 L381.63676,70.6541303 C381.463142,71.5569426 381.2114,72.4510607 380.881526,73.3365113 C380.551653,74.2219619 380.100253,75.0205916 379.527315,75.7324244 C378.954376,76.4442573 378.251235,77.025868 377.417869,77.4772742 C376.584504,77.9286804 375.577536,78.1543801 374.396935,78.1543801 C373.459399,78.1543801 372.652089,77.8939574 371.97498,77.3731041 C371.29787,76.8522508 370.959321,76.0536211 370.959321,74.9771909 C370.959321,74.4216141 371.106894,73.996257 371.402044,73.7011068 C371.697194,73.4059566 372.035744,73.2583837 372.417703,73.2583837 C373.042727,73.2583837 373.355234,73.5535295 373.355234,74.1438298 C373.355234,74.5257889 373.242384,74.8209347 373.016681,75.029276 C372.790978,75.2376173 372.678128,75.463317 372.678128,75.7063819 C372.678128,76.088341 372.808339,76.3661252 373.068766,76.539743 C373.329193,76.7133608 373.667742,76.8001683 374.084425,76.8001683 C374.501108,76.8001683 374.865699,76.669957 375.178211,76.4095303 C375.490723,76.1491037 375.768508,75.8192349 376.011572,75.419914 C376.254637,75.0205932 376.462976,74.5778745 376.636593,74.0917448 C376.810211,73.605615 376.949103,73.1194926 377.053274,72.6333629 L379.292932,61.6434134 C378.910973,61.678137 378.598465,61.747583 378.355401,61.8517537 C378.112336,61.9559244 377.869274,62.077455 377.62621,62.2163492 C377.452592,62.3552434 377.278977,62.4246894 377.105359,62.4246894 C376.897018,62.4246894 376.792849,62.3031588 376.792849,62.060094 C376.792849,61.9906469 376.827572,61.8951585 376.897019,61.7736261 C376.966466,61.6520937 377.053273,61.5566053 377.157444,61.4871582 C377.435232,61.2440933 377.765101,60.9923514 378.14706,60.7319247 C378.529019,60.4714981 379.015142,60.2544791 379.605442,60.0808614 L380.178378,57.2161826 C380.456166,56.0008583 380.968331,54.9157635 381.714887,53.9608658 C382.461444,53.0059681 383.720154,52.0250425 385.491055,51.0180595 C386.011908,50.7055475 386.393862,50.5492938 386.636926,50.5492938 C386.879991,50.5492938 387.001522,50.688186 387.001522,50.9659744 C387.001522,51.1395922 386.775822,51.504184 386.324416,52.0597608 C386.011904,52.4417199 385.742801,52.8236733 385.517097,53.2056323 C385.291394,53.5875914 385.091737,54.0042678 384.918119,54.455674 C384.744501,54.9070802 384.579567,55.4105641 384.423311,55.966141 C384.267055,56.5217178 384.119482,57.1640939 383.980588,57.8932885 Z M372.001022,61.6434134 C371.410722,61.6434134 370.81175,61.5305636 370.204087,61.3048605 C369.596425,61.0791574 369.049537,60.7319271 368.563408,60.2631591 C368.077278,59.7943911 367.677963,59.2040996 367.365451,58.4922668 C367.052939,57.780434 366.896686,56.9557619 366.896686,56.018226 C366.896686,54.3514955 367.252597,52.8931282 367.964429,51.6430803 C368.676262,50.3930324 369.657188,49.3513414 370.907236,48.5179762 C372.157284,47.6846109 373.650374,47.0595963 375.386552,46.6429137 C377.122729,46.2262311 379.015135,46.0178929 381.063824,46.0178929 C382.661108,46.0178929 384.093433,46.1047005 385.360842,46.2783182 C386.628252,46.451936 387.765431,46.6429127 388.772414,46.851254 C389.779397,47.0595953 390.664835,47.250572 391.428753,47.4241897 C392.192671,47.5978075 392.86977,47.6846151 393.46007,47.6846151 C394.119818,47.6846151 394.684067,47.615169 395.152835,47.4762748 C395.621603,47.3373806 396.029599,47.1637654 396.376834,46.9554241 C396.82824,46.6429121 397.140748,46.4866585 397.314365,46.4866585 C397.487983,46.4866585 397.574791,46.5908276 397.574791,46.7991689 C397.574791,46.868616 397.548749,46.9727851 397.496663,47.1116793 C397.444578,47.2505735 397.297005,47.4762732 397.05394,47.7887852 C396.845599,48.0665736 396.567815,48.3877617 396.220579,48.752359 C395.873344,49.1169563 395.482709,49.4641866 395.048665,49.7940604 C394.614621,50.1239341 394.14586,50.4017184 393.642368,50.6274214 C393.138877,50.8531245 392.60935,50.9659744 392.053774,50.9659744 C391.255132,50.9659744 390.421779,50.8097207 389.55369,50.4972088 C388.685601,50.1846968 387.730718,49.8461472 386.689012,49.4815499 C385.647305,49.1169526 384.475403,48.7784031 383.173269,48.4658911 C381.871136,48.1533791 380.386727,47.9971255 378.719996,47.9971255 C377.469948,47.9971255 376.245961,48.1707406 375.047999,48.5179762 C373.850036,48.8652117 372.773622,49.3860572 371.818724,50.0805282 C370.863827,50.7749993 370.091239,51.6430751 369.500939,52.6847817 C368.910639,53.7264882 368.615493,54.9591559 368.615493,56.3828215 C368.615493,57.8412107 368.980085,58.8829017 369.709279,59.5079256 C370.438474,60.1329496 371.30655,60.4454568 372.313533,60.4454568 C373.424686,60.4454568 374.26672,60.1416303 374.839658,59.5339681 C375.412597,58.926306 375.699062,58.2926107 375.699062,57.6328632 C375.699062,57.2509041 375.594893,56.9644391 375.386552,56.7734595 C375.17821,56.58248 375.074041,56.296015 375.074041,55.9140559 C375.074041,55.6015439 375.186891,55.3411212 375.412594,55.1327799 C375.638297,54.9244386 375.907401,54.8202695 376.219913,54.8202695 C376.983831,54.8202695 377.365784,55.3411149 377.365784,56.3828215 C377.365784,57.9453814 376.8623,59.212772 375.855317,60.1850315 C374.848334,61.157291 373.563582,61.6434134 372.001022,61.6434134 Z M393.753049,58.309969 C393.753049,57.9974571 393.813814,57.6675883 393.935347,57.3203527 C394.056879,56.9731172 394.239175,56.6432484 394.48224,56.3307364 C394.725305,56.0182245 394.994408,55.7578017 395.289558,55.5494604 C395.584709,55.3411191 395.923258,55.23695 396.305217,55.23695 C396.687176,55.23695 396.999684,55.3584806 397.242749,55.6015455 C397.485813,55.8446104 397.607344,56.1571176 397.607344,56.5390767 C397.607344,56.8515887 397.546579,57.1901382 397.425046,57.5547355 C397.303514,57.9193329 397.129899,58.2665632 396.904196,58.5964369 C396.678492,58.9263107 396.409389,59.1954142 396.096877,59.4037555 C395.784365,59.6120968 395.454496,59.7162659 395.107261,59.7162659 C394.690578,59.7162659 394.360709,59.5773738 394.117644,59.2995853 C393.87458,59.0217969 393.753049,58.6919281 393.753049,58.309969 Z M392.971773,74.4563403 C392.971773,75.2202584 393.336365,75.6022118 394.065559,75.6022118 C394.621136,75.6022118 395.332958,75.1421316 396.201047,74.2219574 C397.069136,73.3017833 397.954573,72.1819655 398.857386,70.8624705 C399.135174,70.4457879 399.360874,70.2374497 399.534492,70.2374497 C399.555857,70.2374497 399.576283,70.2381204 399.59577,70.2394618 C399.700802,69.7595897 399.804078,69.2814735 399.905598,68.8051103 C400.131301,67.746042 400.330958,66.9040085 400.504576,66.2789845 C400.678194,65.5845135 401.042786,65.0202642 401.598362,64.5862198 C402.153939,64.1521754 402.640062,63.8309873 403.056744,63.622646 C403.50815,63.3795812 403.942188,63.205966 404.358871,63.1017953 C404.775554,62.9976247 405.088061,62.9455401 405.296402,62.9455401 C405.574191,62.9455401 405.713083,63.0497092 405.713083,63.2580505 C405.713083,63.4316683 405.643637,63.6139642 405.504742,63.8049438 C405.365848,63.9959233 405.226956,64.2303038 405.088062,64.5080922 C404.914444,64.8900513 404.714787,65.4456198 404.489084,66.1748144 C404.263381,66.904009 404.011639,67.7547233 403.73385,68.7269827 C403.976915,68.3450236 404.341507,67.8328589 404.827637,67.1904732 C405.313766,66.5480875 405.869335,65.9230729 406.494359,65.3154107 C407.119383,64.7077486 407.796482,64.1782223 408.525676,63.7268162 C409.254871,63.27541 410.018778,63.0497103 410.817419,63.0497103 C411.650785,63.0497103 412.310522,63.2927715 412.796652,63.7789012 C413.282782,64.265031 413.525843,64.8900455 413.525843,65.6539637 C413.525843,66.3831583 413.439035,67.1383842 413.265418,67.9196642 C413.0918,68.7009441 412.892142,69.4822123 412.666439,70.2634922 C412.440736,71.0447722 412.241079,71.7999981 412.067461,72.5291927 C411.893843,73.2583873 411.807036,73.9007634 411.807036,74.4563403 C411.807036,75.2202584 412.136905,75.6022118 412.796652,75.6022118 C413.282782,75.6022118 413.977242,75.1421316 414.880055,74.2219574 C415.782867,73.3017833 416.685666,72.1819655 417.588478,70.8624705 C417.831543,70.4457879 418.057243,70.2374497 418.265584,70.2374497 C418.473926,70.2374497 418.578095,70.3242573 418.578095,70.4978751 C418.578095,70.6367693 418.508649,70.8364267 418.369754,71.0968533 C418.23086,71.35728 418.126691,71.5222144 418.057244,71.5916615 C417.640561,72.1819619 417.154439,72.859061 416.598862,73.6229792 C416.043285,74.3868973 415.435632,75.1074002 414.775885,75.7845095 C414.116137,76.4616188 413.412996,77.025868 412.666439,77.4772742 C411.919883,77.9286804 411.147296,78.1543801 410.348654,78.1543801 C409.619459,78.1543801 409.011806,77.9026381 408.525676,77.3991466 C408.039547,76.8956551 407.796485,76.2272367 407.796485,75.3938715 C407.796485,74.6299533 407.883293,73.8660466 408.056911,73.1021285 C408.230529,72.3382103 408.430186,71.5916651 408.655889,70.8624705 C408.881592,70.1332759 409.08125,69.4301345 409.254867,68.7530253 C409.428485,68.075916 409.515293,67.4248591 409.515293,66.7998352 C409.515293,66.4525997 409.411124,66.1921769 409.202782,66.0185592 C408.994441,65.8449414 408.75138,65.7581338 408.473591,65.7581338 C408.126356,65.7581338 407.71836,65.9404297 407.249592,66.305027 C406.780824,66.6696243 406.320744,67.1297045 405.869338,67.6852814 C405.417932,68.2408582 404.992575,68.8398305 404.593254,69.4822162 C404.193933,70.1246019 403.872745,70.7062127 403.62968,71.227066 C403.247721,72.0257077 402.943894,72.7809337 402.718191,73.4927665 C402.492488,74.2045993 402.310192,74.8556562 402.171298,75.4459566 C401.99768,76.1057041 401.598365,76.6352303 400.973342,77.0345511 C400.348318,77.433872 399.810111,77.720337 399.358704,77.8939548 C398.803128,78.1370196 398.317005,78.2585503 397.900322,78.2585503 C397.691981,78.2585503 397.587812,78.1543812 397.587812,77.9460398 C397.587812,77.8071456 397.613854,77.6769343 397.66594,77.5554018 C397.718025,77.4338694 397.830875,77.1821274 398.004493,76.8001683 C398.143387,76.4876564 398.317002,75.8800033 398.525343,74.9771909 C398.733685,74.0743786 398.959384,73.0847722 399.202449,72.008342 C399.229401,71.888984 399.256246,71.7697329 399.282984,71.6505887 C398.909684,72.1607137 398.463991,72.7834491 397.945897,73.518809 C397.407682,74.2827272 396.80871,75.0032301 396.148962,75.6803394 C395.489215,76.3574486 394.777392,76.9390594 394.013474,77.4251892 C393.249556,77.9113189 392.468288,78.1543801 391.669646,78.1543801 C390.766834,78.1543801 390.107096,77.9113189 389.690414,77.4251892 C389.273731,76.9390594 389.065393,76.3314064 389.065393,75.6022118 C389.065393,75.1855291 389.126158,74.5865568 389.24769,73.8052769 C389.369223,73.023997 389.516796,72.1819634 389.690414,71.2791511 C389.864031,70.3763387 390.046327,69.4735399 390.237307,68.5707275 C390.428286,67.6679152 390.610582,66.9040085 390.7842,66.2789845 C390.957818,65.5845135 391.32241,65.0202642 391.877986,64.5862198 C392.433563,64.1521754 392.919686,63.8309873 393.336368,63.622646 C393.787775,63.3795812 394.221812,63.205966 394.638495,63.1017953 C395.055178,62.9976247 395.367685,62.9455401 395.576026,62.9455401 C395.853815,62.9455401 395.992707,63.0497092 395.992707,63.2580505 C395.992707,63.4316683 395.923261,63.6139642 395.784367,63.8049438 C395.645472,63.9959233 395.50658,64.2303038 395.367686,64.5080922 C395.194068,64.8206042 394.977049,65.3935342 394.716623,66.2268994 C394.456196,67.0602647 394.195773,67.9891058 393.935347,69.0134506 C393.67492,70.0377954 393.44922,71.0447633 393.258241,72.0343846 C393.067261,73.0240058 392.971773,73.8313163 392.971773,74.4563403 Z M392.971773,74.4563403" fill="url(#linearGradient-3)" transform="translate(392.737390, 62.138222) rotate(-11.000000) translate(-392.737390, -62.138222) "></path>
            </g>
        </g>
    </g>
</svg>