<?xml version="1.0" encoding="UTF-8" standalone="no"?>
<svg width="44px" height="27px" viewBox="0 0 44 27" version="1.1" xmlns="http://www.w3.org/2000/svg" xmlns:xlink="http://www.w3.org/1999/xlink" xmlns:sketch="http://www.bohemiancoding.com/sketch/ns">
    <title>logo-palm</title>
    <description>Created with Sketch (http://www.bohemiancoding.com/sketch)</description>
    <defs></defs>
    <g id="Page 1" stroke="none" stroke-width="1" fill="none" fill-rule="evenodd">
        <g id="logo">
            <g id="Page 1">
                <g id="logo">
                    <g id="Page 1">
                        <g id="Home">
                            <g id="Header lines">
                                <path d="M12.1896128,9.88500071 C13.2872504,9.88500071 14.4505235,10.1627466 15.6803408,10.7170908 C16.9094771,11.2721235 18.0950073,12.0151513 19.236932,12.9470922 C20.1369808,12.2373481 20.9602659,11.3829924 21.7067866,10.3844843 C21.0038714,9.38574662 20.444038,8.34890501 20.0272851,7.27212304 C19.6100787,6.19602972 19.4015889,5.12544539 19.4015889,4.06037008 C19.4015889,3.52783243 19.4674517,3.01756035 19.5991772,2.52932432 C19.7309027,2.04154737 19.9337144,1.60886053 20.2085217,1.23149333 C20.4828742,0.854355669 20.8228622,0.554803237 21.229395,0.332606492 C21.6354731,0.111098373 22.1021905,0 22.6290926,0 C22.9799821,0 23.3372312,0.0830942375 23.6992496,0.249741797 C24.0614948,0.416159814 24.385131,0.660392603 24.6708393,0.981751532 C24.955866,1.30356955 25.1920638,1.70320233 25.3787506,2.17996125 C25.5649832,2.65740881 25.6585539,3.21772106 25.6585539,3.860898 C25.6585539,5.03707168 25.4169059,6.19625928 24.934063,7.33891976 C24.4509938,8.48180986 23.7923657,9.56341223 22.9581796,10.5839564 C23.68267,11.4277531 24.4945994,12.1817989 25.3951029,12.8472414 C26.4266504,12.1597628 27.4806824,11.6104686 28.556517,11.1995882 C29.6318974,10.7893965 30.6857021,10.5837268 31.7179306,10.5837268 C32.2448332,10.5837268 32.7494787,10.6505236 33.2327752,10.7834284 C33.7153902,10.9165629 34.1385021,11.1112145 34.5007473,11.3660062 C34.8629925,11.6212571 35.1536973,11.9433046 35.3735428,12.3312308 C35.5927068,12.7193864 35.7028566,13.1688299 35.7028566,13.6791019 C35.7028566,14.0785052 35.6313163,14.4671199 35.4889166,14.8440281 C35.3458349,15.2216248 35.1266709,15.5654788 34.8302884,15.8755902 C34.533906,16.1866198 34.1494036,16.4363615 33.6776896,16.6248156 C33.2052946,16.8134992 32.6291083,16.9076114 31.948905,16.9076114 C30.8292375,16.9076114 29.6873128,16.6528198 28.5240398,16.141859 C27.3600852,15.6315869 26.2404178,14.9436493 25.1650373,14.0785052 C24.7255737,14.4561019 24.3031433,14.8555051 23.8970647,15.2767149 C23.4905325,15.6986133 23.1117082,16.1420886 22.7610455,16.608059 C23.463506,17.5847606 24.02334,18.5885482 24.4405464,19.6201104 C24.8572992,20.6521316 25.0662432,21.6671667 25.0662432,22.6656749 C25.0662432,23.1982125 24.9947023,23.7142231 24.8523026,24.2134772 C24.7092214,24.7127313 24.5066365,25.1562066 24.2429581,25.5448213 C23.9795071,25.9327475 23.666545,26.2380385 23.3045272,26.4602352 C22.9422815,26.6817433 22.5523283,26.7928417 22.135576,26.7928417 C21.6961119,26.7928417 21.268004,26.7097475 20.8512517,26.5430999 C20.4340447,26.3766819 20.060898,26.1379581 19.7315842,25.8276172 C19.4022699,25.5168172 19.1388188,25.1229229 18.9412305,24.646164 C18.7436422,24.168946 18.6448481,23.6086338 18.6448481,22.9654568 C18.6448481,21.8556208 18.9082991,20.7297168 19.4352012,19.5870563 C19.9621039,18.4443958 20.6752391,17.3405279 21.575742,16.275223 C20.8728274,15.4766461 20.060898,14.7111232 19.1388188,13.9788839 C18.0850141,14.6890871 16.9762481,15.2381518 15.8127478,15.6263075 C14.6487932,16.0146927 13.50755,16.2088853 12.3878826,16.2088853 C11.8609805,16.2088853 11.3556536,16.1478272 10.8730385,16.0257108 C10.3899688,15.9040534 9.96753843,15.7151403 9.60506643,15.4596599 C9.24282071,15.2050978 8.95166171,14.8773117 8.73249771,14.4779084 C8.51287957,14.0787347 8.4031839,13.6019758 8.4031839,13.046943 C8.4031839,12.1147726 8.74339924,11.3552178 9.42405724,10.7669014 C10.1035796,10.1795032 11.0256583,9.88500071 12.1896128,9.88500071 L12.1896128,9.88500071 L12.1896128,9.88500071 Z M12.3872016,15.6097805 C13.4410058,15.6097805 14.4834549,15.421556 15.5156839,15.0437297 C16.5472314,14.666592 17.5354007,14.156779 18.4795097,13.5126839 C17.4695379,12.8254349 16.4264074,12.2761407 15.351027,11.8652603 C14.2751924,11.454839 13.2320619,11.2493989 12.2225442,11.2493989 C11.2782083,11.2493989 10.5537174,11.4491005 10.0490725,11.8482742 C9.54374562,12.2476774 9.29165024,12.747161 9.29165024,13.3460364 C9.29165024,14.0566987 9.56032471,14.6108133 10.098583,15.0102165 C10.6361598,15.4100788 11.3992597,15.6097805 12.3872016,15.6097805 L12.3872016,15.6097805 L12.3872016,15.6097805 Z M22.3654142,11.2826825 C21.6188935,12.1039841 20.795609,12.8362234 19.8955596,13.4794003 C20.7297462,14.21141 21.4542366,14.955356 22.0690318,15.7094017 C22.4421785,15.3099985 22.8264541,14.9273518 23.2216307,14.5612322 C23.6168072,14.194883 24.03356,13.8457495 24.4730237,13.5126839 C23.7262761,12.8254349 23.0240424,12.0817185 22.3654142,11.2826825 L22.3654142,11.2826825 L22.3654142,11.2826825 Z M20.0602165,4.12693728 C20.0602165,5.03707168 20.2521272,5.96327405 20.6366296,6.90623296 C21.0204505,7.84942142 21.5530307,8.76483529 22.233916,9.65201548 C22.8044237,8.78641221 23.2547894,7.86617799 23.5841032,6.88947639 C23.913417,5.91323384 24.0780739,4.92574377 24.0780739,3.92723566 C24.0780739,2.86216035 23.9077394,2.06358341 23.5675241,1.53104576 C23.2268541,0.998508102 22.7714923,0.732239275 22.2009847,0.732239275 C21.5639322,0.732239275 21.0483858,1.04854828 20.6532087,1.68093674 C20.2578048,2.31286613 20.0602165,3.12842918 20.0602165,4.12693728 L20.0602165,4.12693728 L20.0602165,4.12693728 Z M24.4400923,22.6656749 C24.4400923,21.733734 24.2477274,20.8070725 23.8636792,19.8866087 C23.4794041,18.966145 22.9688538,18.0727671 22.332256,17.2073935 C21.6952036,18.1395639 21.1848806,19.0827524 20.8010597,20.0362702 C20.4167841,20.9902471 20.2246466,21.9444536 20.2246466,22.8988896 C20.2246466,23.9192042 20.4494887,24.6847271 20.8998539,25.1954583 C21.3495375,25.7057303 21.8600879,25.9609811 22.4310502,25.9609811 C23.0017852,25.9609811 23.4791768,25.6556902 23.8636792,25.0457968 C24.2477274,24.4349853 24.4400923,23.6419174 24.4400923,22.6656749 L24.4400923,22.6656749 L24.4400923,22.6656749 Z M31.7179306,11.1830612 C30.795852,11.1830612 29.8574205,11.3774834 28.9024099,11.7656391 C27.9473993,12.1537947 27.0089684,12.6805938 26.0868892,13.3464954 C27.0748311,14.0346626 28.0957045,14.5779888 29.1495092,14.977392 C30.2033139,15.3767953 31.2241872,15.5762673 32.2121287,15.5762673 C33.0463152,15.5762673 33.7049434,15.3767953 34.1880126,14.977392 C34.6706281,14.5779888 34.9125035,14.0346626 34.9125035,13.3464954 C34.9125035,12.7476201 34.627022,12.2373481 34.056287,11.8154497 C33.4848706,11.3942399 32.7058726,11.1830612 31.7179306,11.1830612 L31.7179306,11.1830612 L31.7179306,11.1830612 Z M31.7179306,11.1830612" id="Shape" fill="#D8D8D8"></path>
                                <path d="M38.836336,18.5137175 C39.3234935,18.3918306 39.7079959,18.2639757 39.9896163,18.1308413 C40.2712362,17.9972478 40.4881295,17.8462091 40.639841,17.6765775 C40.7920066,17.5071754 40.8883027,17.3104579 40.9285014,17.0871134 C40.968928,16.8633098 40.9893681,16.5956638 40.9893681,16.2839456 C40.9893681,16.1439249 40.9866427,15.9722274 40.9823276,15.7690827 C40.9775583,15.5654788 40.975287,15.3894201 40.975287,15.2402177 C40.975287,14.6532786 41.103833,14.2132464 41.3606977,13.9196621 C41.618017,13.6265368 41.9652729,13.4089309 42.4036009,13.267992 C41.9475582,13.1185601 41.5957599,12.9000361 41.3475255,12.6124198 C41.0995179,12.3250331 40.975287,11.8891327 40.975287,11.3047185 C40.975287,11.1564344 40.9775583,10.9824414 40.9823276,10.7825102 C40.9868695,10.5825791 40.9893681,10.413177 40.9893681,10.273845 C40.9893681,9.95937231 40.968928,9.69218534 40.9285014,9.47205445 C40.8880754,9.25192361 40.7917798,9.05635371 40.639841,8.88557442 C40.4881295,8.71502464 40.2698738,8.56536321 39.9864368,8.43750826 C39.702091,8.30942375 39.318951,8.18042109 38.836336,8.05004121 L39.0107588,7.34534698 C39.6232828,7.45782258 40.1258838,7.59830236 40.5185623,7.76678622 C40.9114682,7.93527014 41.2217049,8.13451267 41.449726,8.36382526 C41.6772934,8.59313779 41.8317303,8.85619302 41.9132639,9.15276139 C41.9943433,9.44955932 42.0352235,9.77550909 42.0352235,10.1306107 L42.0352235,10.3534961 C42.0352235,10.4434766 42.0324981,10.5421797 42.0286376,10.650294 C42.0238678,10.7581788 42.0215971,10.8591773 42.0215971,10.9535191 L42.0215971,11.1828317 C42.0215971,11.7268464 42.1356074,12.1393336 42.363629,12.4202931 C42.5916506,12.7014821 43.0118098,12.8417324 43.6243338,12.8417324 L43.979539,12.8417324 L43.979539,13.7025152 L43.6243338,13.7025152 C43.0118098,13.7025152 42.5916506,13.8436836 42.363629,14.1262499 C42.1356074,14.4088162 42.0215971,14.8206147 42.0215971,15.3630227 L42.0215971,15.6003692 C42.0215971,15.7041223 42.0238678,15.8069571 42.0286376,15.9086443 C42.0327254,16.0101019 42.0352235,16.10628 42.0352235,16.1967196 L42.0352235,16.4205231 C42.0352235,16.7818224 41.9943433,17.1105267 41.9132639,17.4064064 C41.8317303,17.7022862 41.6772934,17.965571 41.449726,18.1958017 C41.2217049,18.426262 40.911695,18.6273408 40.5185623,18.7990383 C40.1258838,18.9707358 39.6235101,19.1130519 39.0107588,19.2259866 L38.836336,18.5137175 L38.836336,18.5137175 Z M38.836336,18.5137175" id="Shape" fill="#BCBCBC"></path>
                                <path d="M0,13.7020561 L0,12.8415028 L0.355204667,12.8415028 C0.967501857,12.8415028 1.39129467,12.7010231 1.62590267,12.4200635 C1.86051014,12.1388745 1.97792781,11.7266169 1.97792781,11.1823726 L1.97792781,10.95306 C1.97792781,10.8541274 1.97565657,10.7531289 1.97134143,10.6498349 C1.96679948,10.5463114 1.96475505,10.4473788 1.96475505,10.353037 L1.96475505,10.1301517 C1.96475505,9.77068874 2.00495429,9.44382076 2.0851249,9.14931826 C2.16552338,8.85481576 2.32313976,8.59290824 2.55797457,8.36359571 C2.79280938,8.13428312 3.10350019,7.93435198 3.49004648,7.76357264 C3.87659329,7.5925638 4.38078405,7.45323173 5.00193833,7.34534698 L5.16954795,8.05004121 C4.6821631,8.18042109 4.29902367,8.30965331 4.01967448,8.43750826 C3.74032529,8.56536321 3.52456762,8.71502464 3.37262933,8.88557442 C3.22046319,9.05635371 3.12439443,9.25192361 3.08419571,9.47205445 C3.04399648,9.69218534 3.02378371,9.95937231 3.02378371,10.273845 C3.02378371,10.4129475 3.02605443,10.5839564 3.03036957,10.7859534 C3.03468471,10.9879504 3.03695595,11.1612547 3.03695595,11.3047185 C3.03695595,11.8891327 2.90840995,12.3282467 2.65154529,12.6227492 C2.39445329,12.9170222 2.0469701,13.1323327 1.6088689,13.2682216 C1.83689052,13.3409864 2.03992957,13.4321146 2.21912167,13.5411472 C2.39785962,13.6504092 2.54639157,13.7812481 2.66494486,13.9336641 C2.78327081,14.0858505 2.87502443,14.2690251 2.9399789,14.4829583 C3.00470605,14.6968916 3.03718329,14.9491583 3.03718329,15.2404473 C3.03718329,15.3894201 3.03468471,15.5657084 3.03014276,15.7693123 C3.02537348,15.972457 3.02310224,16.1441545 3.02310224,16.2841751 C3.02310224,16.6004842 3.043315,16.8695075 3.08396838,17.0905565 C3.12439443,17.3120646 3.22069052,17.507405 3.37262933,17.6770365 C3.52456762,17.8464386 3.74009795,17.9988546 4.01967448,18.1342844 C4.29902367,18.2701733 4.68239043,18.3964215 5.16954795,18.513947 L5.00193833,19.2255275 C4.38078405,19.1125928 3.87636595,18.9702767 3.48959233,18.7988088 C3.10281871,18.6268818 2.7921279,18.4258029 2.55752043,18.1953426 C2.32291243,17.9648824 2.16529605,17.7018271 2.0851249,17.4059473 C2.00472695,17.1102971 1.96475505,16.7813633 1.96475505,16.4200641 L1.96475505,16.1962605 C1.96475505,16.1058209 1.96702629,16.0098724 1.97134143,15.9081852 C1.97565657,15.806498 1.97792781,15.7038927 1.97792781,15.5999102 L1.97792781,15.3627932 C1.97792781,14.8249761 1.86051014,14.4138662 1.62590267,14.129234 C1.39129467,13.8446018 0.967728667,13.7022857 0.355204667,13.7022857 L0,13.7022857 L0,13.7020561 L0,13.7020561 Z M0,13.7020561" id="Shape" fill="#BCBCBC"></path>
                            </g>
                        </g>
                    </g>
                </g>
            </g>
        </g>
    </g>
</svg>