<?xml version="1.0" encoding="UTF-8" standalone="no"?>
<svg width="84px" height="51px" viewBox="0 0 84 51" version="1.1" xmlns="http://www.w3.org/2000/svg" xmlns:xlink="http://www.w3.org/1999/xlink" xmlns:sketch="http://www.bohemiancoding.com/sketch/ns">
    <title>logo</title>
    <description>Created with Sketch (http://www.bohemiancoding.com/sketch)</description>
    <defs></defs>
    <g id="Page 1" stroke="none" stroke-width="1" fill="none" fill-rule="evenodd">
        <g id="logo">
            <g id="Page 1">
                <g id="Home">
                    <g id="Header lines">
                        <path d="M23.271079,18.671668 C25.366569,18.671668 27.587363,19.1962992 29.935196,20.2433937 C32.281729,21.2917889 34.545014,22.6952858 36.725052,24.4556186 C38.443327,23.1149908 40.015053,21.5012078 41.440229,19.615137 C40.0983,17.7286325 39.029527,15.7701539 38.233908,13.7362324 C37.437423,11.7036117 37.039397,9.68139684 37.039397,7.66958793 C37.039397,6.66368347 37.165135,5.69983622 37.416611,4.7776126 C37.668087,3.85625615 38.055273,3.03895877 38.579905,2.32615406 C39.103669,1.61378293 39.752737,1.04796167 40.528845,0.628256708 C41.304085,0.209852482 42.195091,0 43.200995,0 C43.870875,0 44.552896,0.156955782 45.244022,0.471734505 C45.935581,0.786079649 46.553432,1.24740825 47.098875,1.85441956 C47.643017,2.46229803 48.09394,3.21715995 48.450342,4.11770459 C48.805877,5.01954997 48.984512,6.07791755 48.984512,7.29280733 C48.984512,9.51446873 48.523184,11.7040453 47.601393,13.862404 C46.67917,16.0211964 45.421789,18.0642231 43.829252,19.9919176 C45.21237,21.5857558 46.762417,23.0100645 48.48156,24.2670115 C50.450878,22.9684409 52.463121,21.9308851 54.516987,21.1547778 C56.569986,20.3799712 58.581795,19.991484 60.552413,19.991484 C61.558318,19.991484 62.521732,20.1176556 63.444389,20.3686981 C64.365745,20.6201743 65.173504,20.9878497 65.865063,21.4691229 C66.556622,21.9512634 67.111604,22.5595754 67.531309,23.2923248 C67.949713,24.0255077 68.159999,24.8744564 68.159999,25.8383036 C68.159999,26.592732 68.023422,27.3267821 67.751568,28.0387197 C67.478412,28.7519579 67.060008,29.40146 66.494187,29.987226 C65.928366,30.5747262 65.194316,31.0464607 64.293771,31.4024295 C63.391926,31.7588318 62.291934,31.9365994 60.993364,31.9365994 C58.855817,31.9365994 56.675779,31.4553262 54.454985,30.4901782 C52.23289,29.5263309 50.095343,28.2268932 48.042344,26.592732 C47.203368,27.3059703 46.39691,28.0603986 45.621669,28.856017 C44.845562,29.6529362 44.122352,30.4906118 43.452905,31.3707782 C44.793966,33.215659 45.86274,35.1117022 46.659225,37.0602085 C47.454844,39.009582 47.853737,40.9268705 47.853737,42.8129414 C47.853737,43.8188459 47.717159,44.7935326 47.445305,45.736568 C47.17215,46.6796035 46.785397,47.5172791 46.282011,48.2513292 C45.779059,48.9840786 45.181586,49.5607393 44.490461,49.9804443 C43.798901,50.3988485 43.054445,50.608701 42.258827,50.608701 C41.41985,50.608701 40.602553,50.4517452 39.806935,50.1369665 C39.010449,49.8226213 38.298078,49.3716986 37.669388,48.7854991 C37.040697,48.1984325 36.537745,47.45441 36.160531,46.5538654 C35.783317,45.6524536 35.59471,44.594086 35.59471,43.3791962 C35.59471,41.2828393 36.097662,39.1561318 37.103566,36.997773 C38.109471,34.8394142 39.470911,32.7543304 41.190053,30.7420879 C39.848125,29.2336648 38.298078,27.7876771 36.537745,26.4045585 C34.525936,27.7460535 32.409201,28.7831757 30.187973,29.5163586 C27.965878,30.2499751 25.787141,30.6167834 23.649594,30.6167834 C22.64369,30.6167834 21.678975,30.5014513 20.757619,30.270787 C19.835395,30.0409898 19.028937,29.6841539 18.336945,29.2015799 C17.645385,28.7207402 17.089536,28.1015887 16.671132,27.3471603 C16.251861,26.5931656 16.042442,25.6926209 16.042442,24.6442257 C16.042442,22.8834593 16.691944,21.4487447 17.991382,20.3374804 C19.288652,19.2279505 21.048984,18.671668 23.271079,18.671668 L23.271079,18.671668 L23.271079,18.671668 Z M23.648294,29.4851409 C25.660102,29.4851409 27.650232,29.1296057 29.620851,28.4159338 C31.590169,27.7035627 33.476674,26.7405826 35.279064,25.5239585 C33.350936,24.2258215 31.359505,23.1882657 29.306506,22.4121584 C27.25264,21.6369182 25.261209,21.2488646 23.333948,21.2488646 C21.531125,21.2488646 20.148006,21.6260787 19.184593,22.3800735 C18.219878,23.1345018 17.738605,24.0779708 17.738605,25.2091798 C17.738605,26.5515419 18.251529,27.5982029 19.279113,28.3526312 C20.305396,29.1079267 21.762223,29.4851409 23.648294,29.4851409 L23.648294,29.4851409 L23.648294,29.4851409 Z M42.697609,21.3117336 C41.272433,22.8630811 39.700708,24.2461997 37.982432,25.4610895 C39.57497,26.8437745 40.958088,28.2490057 42.131788,29.6733144 C42.844159,28.9188861 43.577776,28.196109 44.332204,27.5045497 C45.086632,26.8125568 45.882251,26.1530824 46.721227,25.5239585 C45.295618,24.2258215 43.95499,22.8210238 42.697609,21.3117336 L42.697609,21.3117336 L42.697609,21.3117336 Z M38.296777,7.79532598 C38.296777,9.51446873 38.663152,11.2639621 39.397202,13.0451067 C40.129951,14.8266849 41.146695,16.5558 42.446567,18.2315848 C43.535718,16.5965564 44.395507,14.8583362 45.024197,13.0134554 C45.652887,11.1694417 45.967232,9.30418267 45.967232,7.41811181 C45.967232,5.40630289 45.642048,3.89787978 44.992546,2.89197532 C44.342176,1.88607086 43.472849,1.38311863 42.383698,1.38311863 C41.167507,1.38311863 40.183282,1.98059119 39.428853,3.17510274 C38.673991,4.36874713 38.296777,5.90925512 38.296777,7.79532598 L38.296777,7.79532598 L38.296777,7.79532598 Z M46.658358,42.8129414 C46.658358,41.0526086 46.291116,39.3022481 45.557933,37.5635943 C44.824317,35.8249405 43.84963,34.137449 42.634307,32.5028543 C41.418116,34.2636207 40.443863,36.0451989 39.711114,37.8462881 C38.977497,39.6482446 38.610689,41.4506346 38.610689,43.2534582 C38.610689,45.1807191 39.039933,46.6267068 39.899721,47.5914212 C40.758208,48.5552684 41.732895,49.0374088 42.822914,49.0374088 C43.912499,49.0374088 44.823883,48.4607481 45.557933,47.3087273 C46.291116,46.1549723 46.658358,44.6569551 46.658358,42.8129414 L46.658358,42.8129414 L46.658358,42.8129414 Z M60.552413,21.1235601 C58.792081,21.1235601 57.00053,21.4908019 55.177328,22.2239849 C53.354126,22.9571678 51.562576,23.9522328 49.802243,25.2100469 C51.688314,26.5099183 53.637254,27.536201 55.649063,28.2906293 C57.660872,29.0450577 59.609812,29.4218383 61.495882,29.4218383 C63.08842,29.4218383 64.345801,29.0450577 65.268024,28.2906293 C66.189381,27.536201 66.651143,26.5099183 66.651143,25.2100469 C66.651143,24.078838 66.106133,23.1149908 65.016548,22.3180716 C63.925662,21.5224532 62.438484,21.1235601 60.552413,21.1235601 L60.552413,21.1235601 L60.552413,21.1235601 Z M60.552413,21.1235601" id="Shape" fill="#D8D8D8"></path>
                        <path d="M74.142096,34.9703553 C75.072124,34.7401245 75.806174,34.4986208 76.343813,34.2471446 C76.881451,33.9948014 77.29552,33.709506 77.585151,33.3890908 C77.875649,33.0691091 78.059487,32.6975315 78.13623,32.2756586 C78.213408,31.8529186 78.25243,31.3473649 78.25243,30.7585639 C78.25243,30.4940804 78.247227,30.1697629 78.238989,29.7860451 C78.229884,29.40146 78.225548,29.0689046 78.225548,28.7870779 C78.225548,27.6784151 78.470954,26.8472432 78.961332,26.292695 C79.452578,25.7390139 80.115521,25.3279806 80.952329,25.0617627 C80.081702,24.7795025 79.410087,24.3667348 78.936185,23.8234597 C78.462716,23.2806181 78.225548,22.4572506 78.225548,21.3533572 C78.225548,21.0732649 78.229884,20.7446116 78.238989,20.3669638 C78.24766,19.9893161 78.25243,19.6693344 78.25243,19.4061516 C78.25243,18.8121477 78.213408,18.3074612 78.13623,17.8916584 C78.059053,17.4758557 77.875216,17.1064459 77.585151,16.7838628 C77.29552,16.4617132 76.87885,16.1790194 76.337743,15.9375156 C75.794901,15.6955782 75.063452,15.4519065 74.142096,15.2056334 L74.475085,13.8745443 C75.644449,14.0869982 76.60396,14.3523489 77.353619,14.6705962 C78.103712,14.9888436 78.695982,15.3651906 79.131295,15.7983366 C79.565742,16.2314825 79.860576,16.7283646 80.016231,17.2885493 C80.171019,17.8491676 80.249063,18.4648505 80.249063,19.135598 L80.249063,19.5566037 C80.249063,19.7265669 80.24386,19.9130061 80.23649,20.117222 C80.227384,20.3210044 80.223049,20.5117794 80.223049,20.6899806 L80.223049,21.1231265 C80.223049,22.1507099 80.440705,22.9298523 80.876019,23.4605536 C81.311333,23.9916885 82.113455,24.2566056 83.282819,24.2566056 L83.960938,24.2566056 L83.960938,25.8825288 L83.282819,25.8825288 C82.113455,25.8825288 81.311333,26.1491802 80.876019,26.6829165 C80.440705,27.2166529 80.223049,27.9944945 80.223049,29.0190429 L80.223049,29.4673641 C80.223049,29.6633421 80.227384,29.8575857 80.23649,30.0496614 C80.244294,30.2413036 80.249063,30.4229734 80.249063,30.5938037 L80.249063,31.0165437 C80.249063,31.6989979 80.171019,32.3198837 80.016231,32.8787677 C79.860576,33.4376517 79.565742,33.9349674 79.131295,34.3698476 C78.695982,34.8051615 78.104145,35.1849771 77.353619,35.5092946 C76.60396,35.8336121 75.644883,36.1024314 74.475085,36.3157525 L74.142096,34.9703553 L74.142096,34.9703553 Z M74.142096,34.9703553" id="Shape" fill="#BCBCBC"></path>
                        <path d="M0,25.8816616 L0,24.256172 L0.678118,24.256172 C1.847049,24.256172 2.656108,23.9908214 3.103996,23.46012 C3.551883,22.9289851 3.776044,22.1502763 3.776044,21.1222593 L3.776044,20.6891134 C3.776044,20.5022406 3.771708,20.3114657 3.76347,20.1163549 C3.754799,19.9208105 3.750896,19.7339377 3.750896,19.5557366 L3.750896,19.1347309 C3.750896,18.4557454 3.82764,17.8383281 3.980693,17.2820456 C4.134181,16.7257631 4.435085,16.2310489 4.883406,15.797903 C5.331727,15.364757 5.924864,14.9871093 6.662816,14.6645261 C7.400769,14.3415094 8.363315,14.0783266 9.549155,13.8745443 L9.869137,15.2056334 C8.938675,15.4519065 8.207227,15.6960118 7.673924,15.9375156 C7.140621,16.1790194 6.72872,16.4617132 6.438656,16.7838628 C6.148157,17.1064459 5.964753,17.4758557 5.88801,17.8916584 C5.811266,18.3074612 5.772678,18.8121477 5.772678,19.4061516 C5.772678,19.6689008 5.777013,19.9919176 5.785251,20.3734675 C5.793489,20.7550175 5.797825,21.08237 5.797825,21.3533572 C5.797825,22.4572506 5.552419,23.2866882 5.062041,23.8429708 C4.571229,24.3988197 3.907852,24.8055173 3.071477,25.0621963 C3.506791,25.199641 3.894411,25.3717721 4.236505,25.5777224 C4.577732,25.7841062 4.861293,26.0312465 5.087622,26.3191433 C5.313517,26.6066065 5.488683,26.952603 5.612687,27.3566991 C5.736257,27.7607952 5.798259,28.2372991 5.798259,28.7875115 C5.798259,29.0689046 5.793489,29.4018936 5.784818,29.7864787 C5.775713,30.1701965 5.771377,30.494514 5.771377,30.7589975 C5.771377,31.3564701 5.809965,31.8646252 5.887576,32.2821623 C5.964753,32.7005665 6.148591,33.0695427 6.438656,33.3899579 C6.72872,33.7099396 7.140187,33.9978364 7.673924,34.2536483 C8.207227,34.5103274 8.939109,34.7487961 9.869137,34.9707888 L9.549155,36.3148853 C8.363315,36.1015642 7.400335,35.8327449 6.661949,35.508861 C5.923563,35.18411 5.330426,34.8042943 4.882539,34.3689805 C4.434651,33.9336667 4.133747,33.4367845 3.980693,32.8779005 C3.827206,32.3194501 3.750896,31.6981307 3.750896,31.0156766 L3.750896,30.5929365 C3.750896,30.4221062 3.755232,30.24087 3.76347,30.0487943 C3.771708,29.8567185 3.776044,29.6629085 3.776044,29.466497 L3.776044,29.0186093 C3.776044,28.0027326 3.551883,27.2261917 3.103996,26.6885531 C2.656108,26.1509145 1.847482,25.8820952 0.678118,25.8820952 L0,25.8820952 L0,25.8816616 L0,25.8816616 Z M0,25.8816616" id="Shape" fill="#BCBCBC"></path>
                    </g>
                </g>
            </g>
        </g>
    </g>
</svg>